<svg xmlns="http://www.w3.org/2000/svg" viewBox="0 0 562.6 332.71"><defs><style>.cls-1{fill:#fff;}</style></defs><g id="Camada_2" data-name="Camada 2"><g id="Camada_1-2" data-name="Camada 1"><path class="cls-1" d="M115.84,238.42a313.37,313.37,0,0,0,43.57,13.63q11.19,2.63,22.62,4.43t23,2.77a316.25,316.25,0,0,0,46.8.44,324.76,324.76,0,0,0,46.92-6.5A327.4,327.4,0,0,1,253,267.49,326.25,326.25,0,0,1,205.09,275q-12.17,1.05-24.46,1.13T156,275.47a340.66,340.66,0,0,1-49.19-6.82l-.08,0a15.83,15.83,0,1,1,6.6-31A17.36,17.36,0,0,1,115.84,238.42Z"/><path class="cls-1" d="M194,207.89a176.28,176.28,0,0,0,29.5,16.32A174.84,174.84,0,0,0,256,234.67c2.79.66,5.62,1.1,8.45,1.64l4.25.75c1.42.24,2.85.43,4.28.65q8.6,1.2,17.35,1.56a181.68,181.68,0,0,0,35.17-2,184.33,184.33,0,0,1-34.9,8q-9,1.16-18.09,1.45c-3,.09-6.08.1-9.13,0s-6.09-.29-9.12-.63a181,181,0,0,1-18.2-2.55,183.19,183.19,0,0,1-18-4.35,194.2,194.2,0,0,1-34.51-13.88l0,0a10.2,10.2,0,0,1,9.38-18.12C193.26,207.43,193.65,207.67,194,207.89Z"/><path class="cls-1" d="M263.23,193a118.4,118.4,0,0,0,42.24,24.07,123.61,123.61,0,0,0,49.79,5.29A127.17,127.17,0,0,1,303.77,224a125.85,125.85,0,0,1-25.44-7.22,130.94,130.94,0,0,1-23.73-12.43l0,0a7.14,7.14,0,1,1,7.88-11.92A7.9,7.9,0,0,1,263.23,193Z"/><path class="cls-1" d="M259.35,129a515.9,515.9,0,0,0,169.5,26.34,529.84,529.84,0,0,1-176.12.34A13.79,13.79,0,1,1,259.35,129Z"/><path class="cls-1" d="M20.07,295.58C74,302.43,129.2,302,183,292.68a504.28,504.28,0,0,0,79.42-20.56c13-4.49,25.84-9.43,38.38-14.93s24.91-11.62,37-18.19c48.43-26.2,92.26-61.17,130.93-101.2C507.5,97.93,538.35,50.5,562.6,0a581.43,581.43,0,0,1-37.73,75.27,473.86,473.86,0,0,1-49.54,68.54q-13.89,16-28.84,31.05c-10,10.06-20.34,19.7-31,29s-21.83,18.2-33.26,26.65S358.89,247,346.75,254.42s-24.59,14.44-37.39,20.9S283.5,287.58,270.26,293a528.72,528.72,0,0,1-82,25.91c-7,1.68-14.07,3-21.12,4.42-7.09,1.21-14.18,2.52-21.31,3.48-14.24,2.06-28.56,3.64-42.93,4.57a615.19,615.19,0,0,1-86.4-.31,17.82,17.82,0,0,1,2.6-35.55l.88.09Z"/></g></g></svg>