<?xml version="1.0" encoding="UTF-8"?>
<svg version="1.1" viewBox="0 0 2048 310" width="1280" height="1280" xmlns="http://www.w3.org/2000/svg">
<path transform="translate(909,43)" d="m0 0h25l10 2 6 4 5 6 9 21 43 108 17 42 5 12 2-3 19-45 15-36 18-43 20-48 5-10 4-5 7-4 6-1h25l6 2 5 5 1 3v231l-4 3-5 1h-13l-7-2-2-2-1-212-22 54-60 147-5 11-4 3-4 1h-14l-7-2-3-4-19-49-18-46-32-82-12-31-1 209-4 4-5 1h-14l-7-2-2-2v-230l3-6 5-4z" fill="#00A2E1"/>
<path transform="translate(1625,43)" d="m0 0h64l22 2 18 4 13 5 15 8 10 8 11 11 9 14 7 15 5 17 3 22v26l-3 24-5 19-7 16-10 15-14 14-14 9-15 7-19 5-13 2-13 1h-65l-6-3-3-4-1-5v-220l2-7 5-4zm22 27v190h40l19-2 14-4 16-8 12-11 9-14 6-15 4-20 1-12v-21l-3-21-6-18-6-11-9-11-11-9-16-8-18-4-11-1z" fill="#00A3E1"/>
<path transform="translate(403,42)" d="m0 0h12l8 2 2 2 1 109 13-16 13-17 14-17 11-14 13-16 11-14 13-16 4-2 7-1h12l8 2 2 2-1 8-8 10-11 13-9 11-12 14-9 11-11 13-9 11-12 14-3 4 1 4 14 19 13 17 16 21 14 19 16 21 12 16 4 8-1 5-3 2-5 1h-17l-9-3-10-13-70-95-11-15-1 122-4 3-5 1h-14l-7-2-2-2v-238l4-3z" fill="#00A2E1"/>
<path transform="translate(1916,104)" d="m0 0h14l16 2 16 5 11 6 11 9 9 12 7 15 4 14 2 14v28l-3 18-6 18-9 15-10 11-13 9-11 5-14 4-6 1h-29l-15-3-15-6-10-7-7-6-8-11-7-14-4-14-2-13v-33l3-17 5-15 7-13 9-11 8-7 13-8 14-5 10-2zm0 26-14 3-10 5-6 5-6 8-6 12-4 16-1 9v18l2 16 5 16 7 11 9 8 10 5 9 2h20l13-4 11-7 7-8 7-14 4-18v-31l-3-16-5-12-6-9-9-8-11-5-12-2z" fill="#00A2E1"/>
<path transform="translate(166,11)" d="m0 0 6 2 25 14 4 3-1 3-8 5 43-18 3 1-26 14-23 13-24 13-8 5h-5l-9-7-2 6-9 35 59-5-10-7 1-3 25-14 27-15 14-8 2 1-4 5-1 2 5 2 25 14 13 8v3l-23 13-24 14-28 16-26 15-17 10-6-1-18-10-24-14-28-16-26-15-22-13 4-4 18-10 24-14 28-16 26-15z" fill="#F67F1F"/>
<path transform="translate(638,104)" d="m0 0h14l16 2 15 5 11 7 8 9 5 11 3 11 1 7v128l-3 3-4 1h-13l-5-2-2-2-1-17-7 7-14 9-12 5-9 2h-23l-15-4-12-6-6-5-6-8-5-10-2-9v-19l4-13 6-9 9-9 15-8 13-4 18-3h43l-1-24-3-11-5-8-8-6-10-3h-24l-15 4-16 7-9 5h-5l-3-3-1-4v-11l3-6 8-6 11-5 16-5 10-2zm4 101-16 3-12 6-7 8-3 8v15l4 9 4 5 8 5 8 2h15l12-4 11-7 13-12 1-1v-37z" fill="#00A2E1"/>
<path transform="translate(1278,104)" d="m0 0h14l16 2 13 4 11 6 8 8 6 10 4 14 1 6v131l-6 3h-14l-5-2-1-1v-19l-8 7-11 8-13 6-12 3h-23l-15-4-10-5-10-9-6-9-4-11-1-6v-15l3-12 6-11 9-9 14-8 15-5 19-3h42l-1-25-4-13-4-6-10-6-8-2h-24l-15 4-14 6-11 6h-5l-3-4-1-5v-7l2-7 9-7 14-6 13-4zm4 101-15 3-9 4-8 6-4 6-2 7v13l4 10 7 7 9 4 4 1h15l10-3 9-5 10-8 8-8v-37z" fill="#00A2E1"/>
<path transform="translate(1489,104)" d="m0 0h11l16 3 14 7 10 9 7 11 5 15 2 12v124l-3 2-5 1h-15l-7-3-1-2-1-115-4-16-5-9-8-7-7-3-6-1h-9l-10 3-9 5-11 9-11 12-2 4v117l-2 4-6 2h-16l-7-3-1-2v-171l3-4 3-1h17l5 3v24l8-7 10-9 14-8 10-4z" fill="#00A3E1"/>
<path transform="translate(777,62)" d="m0 0h20l5 3 1 1v42h46l3 4v17l-4 5h-45l1 106 3 12 5 7 7 3h15l12-4 5 1 1 2v18l-3 5-9 4-11 2h-17l-16-4-9-6-8-9-5-12-2-11v-114h-25l-4-3-1-3v-15l2-4 2-1h26v-43z" fill="#00A3E1"/>
<path transform="translate(42,89)" d="m0 0 6 2 28 16 78 45 10 6v60l-9-3-105-48-31-14 4-1 48 14-15-8-14-7z" fill="#BBDF50"/>
<path transform="translate(314,159)" d="m0 0 2 1-15 12-16 12-19 14 12-5 12-6h3v42l-8 5-26 15-24 14-28 16-26 15-8 5h-2v-53l21-13 20-12 56-34 20-12 23-14z" fill="#1F64AE"/>
<path transform="translate(291,89)" d="m0 0h2l1 41 9-2 4 1-42 28-44 29-45 30-5 2v-8l14-9 19-12 21-13-10 4-33 16-9 4h-2v-41l5-4 25-14 24-14 52-30z" fill="#0EDBF3"/>
<path transform="translate(42,181)" d="m0 0 5 1 19 10 44 24 18 10 28 15 8 5v10l-6-2-23-12-19-10 8 6 27 18 13 9v34l-12-6-24-14-28-16-52-30-6-4z" fill="#4AA34D"/>
<path transform="translate(166,11)" d="m0 0 6 2 25 14 4 3-1 3-8 5 43-18 3 1-26 14-23 13-24 13-8 5h-5l-9-7-2 6-6 24h-13l-25-8v-2l-10-4-6-1v-2l-7-1-5-3 4-3 26-15 28-16 24-14z" fill="#FCA326"/>
<path transform="translate(248,48)" d="m0 0 2 1-4 5-1 2 5 2 25 14 13 8v3l-23 13-24 14-13 3-5 1h-12l-17-2-16-4-3-4 1-4h3l-1-3 13-2-10-7 1-3 25-14 27-15z" fill="#FCA326"/>
<path transform="translate(42,90)" d="m0 0 5 5 16 28 9 15 13 22 14 24 2 5-5-1-77-35 4-1 48 14-15-8-14-7z" fill="#76B54A"/>
<path transform="translate(290,187)" d="m0 0h3v42l-8 5-26 15-10 6h-5l2-6 13-22 10-17 9-17z" fill="#274496"/>
<path transform="translate(217,218)" d="m0 0 1 2-10 18-14 24-15 26-2 1-1-3-3 4 1 6-1 3h-2v-53l21-13 20-12z" fill="#0BCCF3"/>
<path transform="translate(292,91)" d="m0 0h1l1 39 9-2 4 1-42 28-14 9h-2l2-6 14-24 16-28 8-13z" fill="#1F65AF"/>
<path transform="translate(135,246)" d="m0 0 9 5 17 12 3 2v34h-1l-2-7-9-14-14-23-4-6z" fill="#75B44A"/>
<path transform="translate(122,224)" d="m0 0 6 2 28 15 8 5v10l-6-2-23-12-7-4-6-12z" fill="#76B54A"/>
<path transform="translate(197,230)" d="m0 0 1 2-17 11-8 6v44l1 3-1 3h-2v-53l21-13z" fill="#0EDBF4"/>
<path transform="translate(314,159)" d="m0 0 2 1-15 12-11 8h-3l1-5 23-14z" fill="#23509F"/>
<path transform="translate(171,249)" d="m0 0h1l1 44 1 3-1 3h-2z" fill="#0DD6F3"/>
<path transform="translate(19,152)" d="m0 0 7 1 12 4 3 2v2l-7-1-15-7z" fill="#62AD4B"/>
<path transform="translate(291,89)" d="m0 0h2l-5 10-6-2v-3z" fill="#0BCAF2"/>
<path transform="translate(217,218)" d="m0 0 1 2-5 8-3-4v-2z" fill="#0DD4F1"/>
<path transform="translate(314,159)" d="m0 0 2 1-13 10-1-2 4-4z" fill="#1C63AE"/>
<path transform="translate(238,168)" d="m0 0 4 2-1 3h-8z" fill="#0CCEF4"/>
<path transform="translate(316,158)" d="m0 0 2 1z" fill="#1083C7"/>
</svg>
