<svg xmlns="http://www.w3.org/2000/svg" viewBox="0 0 2771.45 491.12"><defs><style>.cls-1{fill:#0fb3d8;}</style></defs><g id="Camada_2" data-name="Camada 2"><g id="Camada_1-2" data-name="Camada 1"><path class="cls-1" d="M878.17,435.12a38.06,38.06,0,0,1,13.52-13.63,35.56,35.56,0,0,1,18.55-5.07,36.06,36.06,0,0,1,18.64,5.07,37.89,37.89,0,0,1,13.63,13.63,36.95,36.95,0,0,1,0,37.19A37.74,37.74,0,0,1,891.59,486a35.83,35.83,0,0,1-13.48-13.32,36.91,36.91,0,0,1-5-18.95A36.09,36.09,0,0,1,878.17,435.12Zm4.4,34.79a32.63,32.63,0,0,0,11.58,11.73,30.57,30.57,0,0,0,16,4.35,32.1,32.1,0,0,0,32.28-32.27,31.46,31.46,0,0,0-4.36-16.24,33,33,0,0,0-11.73-11.84,31.6,31.6,0,0,0-32.27.06,32.09,32.09,0,0,0-11.58,11.93,32.55,32.55,0,0,0-4.2,16.19A31.36,31.36,0,0,0,882.57,469.91Z"/><path class="cls-1" d="M994.15,452.13a12.15,12.15,0,0,1,3.69,8.66V490h-4.92V462.12a10,10,0,0,0-2.56-6.51A9.16,9.16,0,0,0,983.6,453a15,15,0,0,0-13.07,7.43,15.46,15.46,0,0,0-2.1,8V490h-4.81V449.93h4.2l.41,8.91a15.24,15.24,0,0,1,6.61-7.33,20.15,20.15,0,0,1,10.29-2.71A12.51,12.51,0,0,1,994.15,452.13Z"/><path class="cls-1" d="M1045.28,482.2l2.46,3.49a24.28,24.28,0,0,1-6.72,3.73,21.37,21.37,0,0,1-7.53,1.39,21.83,21.83,0,0,1-11-2.77,19.73,19.73,0,0,1-7.58-7.53,21.24,21.24,0,0,1-2.72-10.71,20.52,20.52,0,0,1,2.87-10.6,21.49,21.49,0,0,1,7.79-7.74,21,21,0,0,1,10.76-2.87,18,18,0,0,1,11.88,4.1,23.34,23.34,0,0,1,7.17,11.07L1018.43,477a16.49,16.49,0,0,0,15.17,9.63A17.68,17.68,0,0,0,1045.28,482.2ZM1025,455a16.08,16.08,0,0,0-5.94,6.09,17.19,17.19,0,0,0-2.15,8.56,15.38,15.38,0,0,0,.41,3.79l29.5-11.58a17,17,0,0,0-5.43-6.61,13.5,13.5,0,0,0-8.09-2.51A16,16,0,0,0,1025,455Z"/><path class="cls-1" d="M1081.24,467.24v4.31h-19v-4.31Z"/><path class="cls-1" d="M1141.18,417.24v4.82h-21.42V490h-5V422.06h-21.21v-4.82Z"/><path class="cls-1" d="M1143.28,459.1a20.6,20.6,0,0,1,7.73-7.69,22.32,22.32,0,0,1,21.72,0,20.21,20.21,0,0,1,7.69,7.69,21.13,21.13,0,0,1,2.77,10.6A20.84,20.84,0,0,1,1172.68,488a21.35,21.35,0,0,1-10.91,2.82,22,22,0,0,1-10.91-2.72,19.65,19.65,0,0,1-7.63-7.53,21.35,21.35,0,0,1-2.77-10.86A20.77,20.77,0,0,1,1143.28,459.1Zm4.2,19.21a16.52,16.52,0,0,0,6,6.15,16.43,16.43,0,0,0,16.6,0,16.45,16.45,0,0,0,6-6.15,17,17,0,0,0,2.21-8.51,17.24,17.24,0,0,0-2.21-8.55,16.23,16.23,0,0,0-6-6.2,16,16,0,0,0-8.3-2.25,15.4,15.4,0,0,0-8.4,2.4,17.25,17.25,0,0,0-5.94,6.3,17.33,17.33,0,0,0,0,16.81Z"/><path class="cls-1" d="M1231.44,449.93V490h-4.3l-.31-8.51a15.53,15.53,0,0,1-6.66,6.92,19.8,19.8,0,0,1-10,2.72,11.93,11.93,0,0,1-12.6-12v-29.2h4.82v27.76a9.75,9.75,0,0,0,2.56,6.56q2.35,2.46,6.86,2.66a14.11,14.11,0,0,0,7.33-2,15.3,15.3,0,0,0,5.48-5.64,15.87,15.87,0,0,0,2.05-8V449.93Z"/><path class="cls-1" d="M1274.32,489.58a22.66,22.66,0,0,1-18.13-1.49,19.83,19.83,0,0,1-7.64-7.48,22,22,0,0,1,0-21.41,20.32,20.32,0,0,1,7.64-7.48,20.92,20.92,0,0,1,10.45-2.72,21.43,21.43,0,0,1,14,4.72l-2.57,3.28a17.71,17.71,0,0,0-11.16-4,15.68,15.68,0,0,0-8.25,2.25,16.54,16.54,0,0,0-5.94,6.15,17,17,0,0,0-2.21,8.51,16.68,16.68,0,0,0,2.21,8.45,16.44,16.44,0,0,0,6,6.1,16.61,16.61,0,0,0,8.56,2.25,17.23,17.23,0,0,0,10.55-3.59l2.66,3A20.37,20.37,0,0,1,1274.32,489.58Z"/><path class="cls-1" d="M1324.58,452.13a12.15,12.15,0,0,1,3.69,8.66V490h-4.92V462.12a10,10,0,0,0-2.56-6.51A9.16,9.16,0,0,0,1314,453a14.45,14.45,0,0,0-7.48,2.05,15.65,15.65,0,0,0-5.59,5.58,15.07,15.07,0,0,0-2.1,7.84V490h-4.81V412.12h4.71v46.11a17.78,17.78,0,0,1,6.76-6.77,19.42,19.42,0,0,1,10-2.66A12.51,12.51,0,0,1,1324.58,452.13Z"/><path class="cls-1" d="M1420.79,465.91h-32.07L1379.09,490h-5l30.73-75.92h.41L1436,490h-5.63Zm-1.85-4.71-14-35.76-14.35,35.76Z"/><path class="cls-1" d="M1450.35,432.76a3.64,3.64,0,0,1,2.51-1,3.46,3.46,0,0,1,2.45,1,3.18,3.18,0,0,1,1,2.41,3.28,3.28,0,0,1-1,2.51,3.43,3.43,0,0,1-2.45,1,3.48,3.48,0,0,1-2.51-1,3.26,3.26,0,0,1-1.08-2.46A3.13,3.13,0,0,1,1450.35,432.76Zm4.76,17.17V490h-4.82V449.93Z"/><path class="cls-1" d="M1485,451.77a20.29,20.29,0,0,1,9.83-3l-.2,4.71a17.55,17.55,0,0,0-8.3,2,15.29,15.29,0,0,0-6,5.53,14.36,14.36,0,0,0-2.21,7.74V490h-4.81V449.93h4.2l.41,9.53A16.64,16.64,0,0,1,1485,451.77Z"/><path class="cls-1" d="M1582.67,465.91H1550.6L1541,490h-5l30.74-75.92h.41L1597.83,490h-5.63Zm-1.84-4.71-14-35.76-14.35,35.76Z"/><path class="cls-1" d="M1671,452.08a12.3,12.3,0,0,1,3.59,8.71V490h-4.82V461.81a9.74,9.74,0,0,0-2.41-6.15A8.8,8.8,0,0,0,1661,453a14,14,0,0,0-7.38,2.05,16.23,16.23,0,0,0-5.48,5.48,15.64,15.64,0,0,0-2.3,7.53V490H1641V461.81a9.62,9.62,0,0,0-2.46-6.15,9,9,0,0,0-6.45-2.66,14.45,14.45,0,0,0-7.48,2.05,15.12,15.12,0,0,0-5.54,5.63,15.53,15.53,0,0,0-2,7.79V490h-4.81V449.93h4.2l.41,8.81a16.9,16.9,0,0,1,6.76-7.28,19,19,0,0,1,9.84-2.66,13.47,13.47,0,0,1,8.3,2.61,10,10,0,0,1,4.1,6.71,16.85,16.85,0,0,1,6.71-6.86,18.92,18.92,0,0,1,9.47-2.46A12.38,12.38,0,0,1,1671,452.08Z"/><path class="cls-1" d="M1726,451.41a20.09,20.09,0,0,1,7.33,7.48,21.36,21.36,0,0,1,2.71,10.71,22.1,22.1,0,0,1-2.82,11.37,19,19,0,0,1-7.53,7.33,21.9,21.9,0,0,1-10.45,2.51,21.26,21.26,0,0,1-10.19-2.56,19.43,19.43,0,0,1-7.43-6.77V490h-4.82V412.12h4.82v45.8a18.88,18.88,0,0,1,7.53-6.71,22.69,22.69,0,0,1,10.6-2.51A19.81,19.81,0,0,1,1726,451.41Zm.56,30.48q4.56-4.71,4.56-12.29a17.67,17.67,0,0,0-2.1-8.51,15.58,15.58,0,0,0-5.94-6.14,16.82,16.82,0,0,0-8.66-2.26,17.07,17.07,0,0,0-11,3.74,15.76,15.76,0,0,0-5.79,9.58v6.25a13.79,13.79,0,0,0,2.66,7.07,17.66,17.66,0,0,0,6,5.28,16.72,16.72,0,0,0,8.09,2Q1722,486.61,1726.57,481.89Z"/><path class="cls-1" d="M1784.31,449.93V490H1780l-.31-8.51a15.58,15.58,0,0,1-6.66,6.92,19.8,19.8,0,0,1-10,2.72,12.38,12.38,0,0,1-9-3.33,12.24,12.24,0,0,1-3.64-8.66v-29.2h4.82v27.76a9.84,9.84,0,0,0,2.56,6.56q2.36,2.46,6.87,2.66a14.1,14.1,0,0,0,7.32-2,15.22,15.22,0,0,0,5.48-5.64,15.77,15.77,0,0,0,2-8V449.93Z"/><path class="cls-1" d="M1807.36,412.12V490h-4.81V412.12Z"/><path class="cls-1" d="M1864.64,449.93V490h-4.82v-8.51a19,19,0,0,1-7.17,6.61,21.72,21.72,0,0,1-20.85.11,19.24,19.24,0,0,1-7.38-7.38,23.71,23.71,0,0,1,.1-22.24,19,19,0,0,1,7.79-7.32,24.08,24.08,0,0,1,11.22-2.56,17.75,17.75,0,0,1,9.42,2.76,18.68,18.68,0,0,1,6.87,7.18l.51-8.71Zm-9.94,32.58a15.1,15.1,0,0,0,5.12-10.76V466a16.28,16.28,0,0,0-5.94-9.42,16.7,16.7,0,0,0-10.76-3.79,17,17,0,0,0-8.4,2.1,15.43,15.43,0,0,0-6,5.94,17.49,17.49,0,0,0-2.2,8.86,16.71,16.71,0,0,0,2.25,8.51,17.15,17.15,0,0,0,6.1,6.19,15.9,15.9,0,0,0,8.35,2.31A16.66,16.66,0,0,0,1854.7,482.51Z"/><path class="cls-1" d="M1913.41,452.13a12.1,12.1,0,0,1,3.68,8.66V490h-4.91V462.12a10,10,0,0,0-2.57-6.51,9.14,9.14,0,0,0-6.76-2.61,14.93,14.93,0,0,0-13.06,7.43,15.46,15.46,0,0,0-2.1,8V490h-4.82V449.93h4.2l.41,8.91a15.29,15.29,0,0,1,6.61-7.33,20.19,20.19,0,0,1,10.3-2.71A12.53,12.53,0,0,1,1913.41,452.13Z"/><path class="cls-1" d="M1960,489.58a22.66,22.66,0,0,1-18.13-1.49,19.83,19.83,0,0,1-7.64-7.48,20.93,20.93,0,0,1-2.76-10.7,20.65,20.65,0,0,1,2.82-10.71,20.22,20.22,0,0,1,7.63-7.48,20.92,20.92,0,0,1,10.45-2.72,21.43,21.43,0,0,1,14,4.72l-2.57,3.28a17.71,17.71,0,0,0-11.16-4,15.68,15.68,0,0,0-8.25,2.25,16.54,16.54,0,0,0-5.94,6.15,17,17,0,0,0-2.21,8.51,16.68,16.68,0,0,0,2.21,8.45,16.44,16.44,0,0,0,6,6.1,16.61,16.61,0,0,0,8.56,2.25,17.23,17.23,0,0,0,10.55-3.59l2.66,3A20.37,20.37,0,0,1,1960,489.58Z"/><path class="cls-1" d="M2008.9,482.2l2.46,3.49a24.28,24.28,0,0,1-6.72,3.73,21.37,21.37,0,0,1-7.53,1.39,21.83,21.83,0,0,1-11-2.77,19.73,19.73,0,0,1-7.58-7.53,21.24,21.24,0,0,1-2.72-10.71,20.52,20.52,0,0,1,2.87-10.6,21.49,21.49,0,0,1,7.79-7.74,21,21,0,0,1,10.76-2.87,18,18,0,0,1,11.88,4.1,23.34,23.34,0,0,1,7.17,11.07L1982.05,477a16.49,16.49,0,0,0,15.17,9.63A17.68,17.68,0,0,0,2008.9,482.2ZM1988.61,455a16.08,16.08,0,0,0-5.94,6.09,17.19,17.19,0,0,0-2.15,8.56,15.38,15.38,0,0,0,.41,3.79l29.5-11.58a17,17,0,0,0-5.43-6.61,13.5,13.5,0,0,0-8.09-2.51A16,16,0,0,0,1988.61,455Z"/><path class="cls-1" d="M116.71,240.2a316.24,316.24,0,0,0,43.89,13.74q11.28,2.63,22.79,4.46t23.21,2.78a316.76,316.76,0,0,0,47.14.45A325.25,325.25,0,0,0,301,255.08a329.2,329.2,0,0,1-46.1,14.41,328.13,328.13,0,0,1-48.28,7.59q-12.27,1.05-24.65,1.13t-24.81-.68a343,343,0,0,1-49.56-6.87l-.08,0a16,16,0,1,1,6.65-31.2A18,18,0,0,1,116.71,240.2Z"/><path class="cls-1" d="M195.43,209.44a177.54,177.54,0,0,0,29.73,16.45,166.34,166.34,0,0,0,16.05,6.05,165.52,165.52,0,0,0,16.66,4.48c2.81.67,5.67,1.11,8.51,1.66l4.29.75c1.43.24,2.87.43,4.32.66,5.76.8,11.6,1.33,17.47,1.57a182,182,0,0,0,35.43-2,186.22,186.22,0,0,1-35.15,8.11c-6,.77-12.11,1.26-18.23,1.45q-4.59.13-9.2,0c-3.06-.19-6.14-.29-9.19-.63a180.75,180.75,0,0,1-18.33-2.57,183.18,183.18,0,0,1-18.09-4.38,196.39,196.39,0,0,1-34.77-14l0,0a10.27,10.27,0,1,1,9.44-18.25C194.7,209,195.1,209.22,195.43,209.44Z"/><path class="cls-1" d="M265.2,194.44a120,120,0,0,0,19.87,14.24,118.3,118.3,0,0,0,22.68,10A124.54,124.54,0,0,0,357.91,224a128.3,128.3,0,0,1-77.5-5.62,133,133,0,0,1-23.91-12.53l0,0a7.2,7.2,0,0,1,7.94-12A8.12,8.12,0,0,1,265.2,194.44Z"/><path class="cls-1" d="M261.29,130a520,520,0,0,0,170.77,26.53,533.74,533.74,0,0,1-177.44.34A13.89,13.89,0,1,1,261.29,130Z"/><path class="cls-1" d="M20.22,297.79c54.38,6.9,110,6.47,164.15-2.92a508.47,508.47,0,0,0,80-20.72c13.07-4.52,26-9.5,38.66-15s25.1-11.72,37.3-18.33c48.79-26.4,92.95-61.63,131.9-101.95S542.38,50.88,566.8,0a583.64,583.64,0,0,1-38,75.83,478.17,478.17,0,0,1-49.91,69.06q-14,16.13-29.07,31.28c-10.06,10.13-20.48,19.84-31.25,29.24s-22,18.34-33.51,26.85-23.48,16.56-35.72,24.07-24.77,14.54-37.67,21.05-26.05,12.35-39.39,17.78a533,533,0,0,1-82.59,26.09c-7.05,1.7-14.17,3-21.28,4.45-7.14,1.23-14.28,2.54-21.47,3.51-14.34,2.08-28.78,3.67-43.25,4.61a618.38,618.38,0,0,1-87-.32,18,18,0,0,1,2.62-35.81l.89.09Z"/><path class="cls-1" d="M968,14.6v306H928.57v-192L819.46,283.27h-.82L711.59,134V320.59H673V14.6h.41l146,206.73L967.53,14.6Z"/><path class="cls-1" d="M1164.82,277.12l17.64,28.3a118.47,118.47,0,0,1-29.33,14.15,99,99,0,0,1-30.55,5.13q-28.3,0-49.43-11.69a82.08,82.08,0,0,1-32.61-32.2q-11.49-20.51-11.48-46.35a86.71,86.71,0,0,1,12.51-45.74,90.78,90.78,0,0,1,34.25-32.81,96.25,96.25,0,0,1,47.58-12.1q33.22,0,55.57,19.48t30.56,54.35L1075,264.81a53.26,53.26,0,0,0,19.89,19.89,56.2,56.2,0,0,0,28.51,7.18Q1144.71,291.88,1164.82,277.12ZM1082,190.57q-15.18,16.41-15.18,41.84a82.36,82.36,0,0,0,.41,9.43l98.85-36.51a56.52,56.52,0,0,0-17.43-22.56q-11.28-8.61-28.09-8.61Q1097.15,174.16,1082,190.57Z"/><path class="cls-1" d="M1434.3,2.71V320.59h-38.55V293.93a86.91,86.91,0,0,1-30.15,22.56,92.67,92.67,0,0,1-39.17,8.21,82.61,82.61,0,0,1-43.07-11.49,79.58,79.58,0,0,1-30.15-32.2q-10.87-20.7-10.87-47.78,0-27.48,11.49-47.79a77.42,77.42,0,0,1,31.58-31q20.08-10.65,45.53-10.66a89.81,89.81,0,0,1,37.12,8q17.85,8,28.1,21.94V2.71ZM1375.85,280q15.39-11.89,19.9-32V216a53.6,53.6,0,0,0-20.92-30.15,60.34,60.34,0,0,0-36.51-11.69,56.91,56.91,0,0,0-49.63,28.51,61.83,61.83,0,0,0,0,60.09,57.94,57.94,0,0,0,20.92,21.33,55.17,55.17,0,0,0,28.71,7.79Q1360.48,291.88,1375.85,280Z"/><path class="cls-1" d="M1745.62,24l-130.84,310.5L1483.93,24h47.17l85.32,213.7L1698.86,24Z"/><path class="cls-1" d="M1793.61,74.49a23.49,23.49,0,0,1,16-6.15,22.75,22.75,0,0,1,15.79,6.15,20.39,20.39,0,0,1,0,30.35,22.75,22.75,0,0,1-15.79,6.15,23.49,23.49,0,0,1-16-6.15,20,20,0,0,1,0-30.35Zm34.05,76.29V320.59h-38.15V150.78Z"/><path class="cls-1" d="M2068.43,150.78V320.59h-38.15V292.7q-9,11.91-26.25,21.95t-39,10.05q-24.21,0-43.68-10.46a76.11,76.11,0,0,1-30.77-30.56q-11.28-20.1-11.28-48T1891,187.08a82.68,82.68,0,0,1,31.59-32,87.79,87.79,0,0,1,44.09-11.28q21.73,0,37.74,9.43a77,77,0,0,1,25.84,24.61l2.87-27.07Zm-57.22,130.64q15-11.69,19.07-31.79V216a52.37,52.37,0,0,0-20.51-29.33,59.33,59.33,0,0,0-35.68-11.28,55.65,55.65,0,0,0-28.1,7.38,54.36,54.36,0,0,0-20.51,20.72,59.86,59.86,0,0,0-7.59,30.15,59,59,0,0,0,7.79,29.94,59.66,59.66,0,0,0,20.92,21.53,54.07,54.07,0,0,0,28.71,8Q1996.24,293.11,2011.21,281.42Z"/><path class="cls-1" d="M2189.83,76.13v75.06h46.35v30.36h-46.35v139h-38.55v-139H2120.1V151.19h31.18V76.13Z"/><path class="cls-1" d="M2286.63,74.49a23.46,23.46,0,0,1,16-6.15,22.77,22.77,0,0,1,15.8,6.15,20.41,20.41,0,0,1,0,30.35,22.77,22.77,0,0,1-15.8,6.15,23.46,23.46,0,0,1-16-6.15,20,20,0,0,1,0-30.35Zm34,76.29V320.59h-38.14V150.78Z"/><path class="cls-1" d="M2384.45,188.31a86.8,86.8,0,0,1,33.63-32.61q21.54-11.88,48.61-11.89t48.2,11.89a85,85,0,0,1,32.81,32.41q11.68,20.5,11.69,45.94t-11.69,46.14a84.13,84.13,0,0,1-33,32.61q-21.33,11.9-48.81,11.9-26.67,0-48-11.28a83.15,83.15,0,0,1-33.43-31.79q-12.1-20.5-12.1-47.58A89,89,0,0,1,2384.45,188.31ZM2418.08,264a54.92,54.92,0,0,0,19.69,21.33,51.28,51.28,0,0,0,27.69,7.79q23.79,0,39.38-16.81t15.58-41.84q0-25-15.58-42.05t-39.38-17a50,50,0,0,0-27.89,8,57,57,0,0,0-19.49,21.53,64.42,64.42,0,0,0,0,59.07Z"/><path class="cls-1" d="M2755.45,158.37q15.59,14.15,16,36.71V320.59h-38.56V208.21q-.82-14.36-8.61-22.56T2700.9,177q-22.56,0-37.33,18.05T2648.81,241v79.57h-38.15V150.78h34.46l2.46,32.82a66.47,66.47,0,0,1,27.07-28.92q18-10.45,41.43-10.46Q2739.85,144.22,2755.45,158.37Z"/></g></g></svg>